<?xml version="1.0" encoding="utf-8"?>
<!-- Generator: Adobe Illustrator 25.2.1, SVG Export Plug-In . SVG Version: 6.00 Build 0)  -->
<svg version="1.1" id="Layer_1" xmlns="http://www.w3.org/2000/svg" xmlns:xlink="http://www.w3.org/1999/xlink" x="0px" y="0px"
	 viewBox="0 0 512 512" style="enable-background:new 0 0 512 512;" xml:space="preserve">
<g>
	<path d="M211.4,252.1c8.9,8.6,17.4,16.6,25.5,24.9c18,18.6,35.9,37.4,49.8,59.5c2.1,3.3,4.5,7,4.9,10.7c0.3,3.1-1.4,7.6-3.8,9.5
		c-6.6,5.2-14.3,8.9-21,13.9c-19.6,14.9-41.8,22-65.8,25.7c-30,4.7-58.1-1.5-84.1-15.1c-39.8-20.7-64-54.3-73.3-98.1
		c-10.7-50.6,5.2-93.5,40.5-129.5c21.6-22,48.4-34.2,79.2-38.8c0,0,37.8-5.3,78.9,10.6c0,0,15.8,6.1,31.3,16.9
		c3.7,2.6,11.5,9,12.1,10.6c0.8,2.3-0.3,4.9-1.8,7.2c-7.5,11.5-14.8,23.4-23.4,34.1C244.9,213.6,228.4,232.2,211.4,252.1z
		 M284.3,351.9c-0.6-3.5-0.5-4.6-0.9-5.5c-1.9-3.8-3.4-8-6.1-11.1c-21.1-24.2-42.5-48.2-63.9-72.1c-2.8-3.1-6.8-5.3-9.6-8.4
		c-1-1.2-1.3-4.6-0.3-5.8c5.9-7.1,12.6-13.6,18.4-20.8c15.5-18.9,30.8-38,46.1-57.1c2.1-2.6,3.9-5.3,5.8-8c-3.3,0.2-5.5,1.2-7.3,2.7
		c-12.6,11.4-25.5,22.6-37.7,34.5c-12.1,11.8-23.6,24.4-35.2,36.7c-8.1,8.6-16.1,17.4-24.3,25.8c-3.3,3.4-2.9,6,0.5,8.7
		c6,4.9,11.8,10,18,14.6c26.9,19.9,53.7,39.7,80.8,59.2C272.6,348.3,278,349.4,284.3,351.9z"/>
	<path d="M394.7,326.3c-36.7,2.9-78.8-30.9-75.4-80.5c2.9-42.2,35.2-72,75.3-71.5c48.2,0.7,76.5,34.1,77.1,76.7
		C472.3,291.1,440.1,328.3,394.7,326.3z"/>
</g>
</svg>
