{
  "asset": {
    "version": "2.0",
    "generator": "THREE.GLTFExporter r174"
  },
  "scenes": [
    {
      "name": "AuxScene",
      "nodes": [
        8
      ]
    }
  ],
  "scene": 0,
  "nodes": [
    {
      "translation": [
        -90.0000171661377,
        -90.00004959106445,
        -5
      ],
      "mesh": 0
    },
    {
      "children": [
        0
      ]
    },
    {
      "translation": [
        -90.0000171661377,
        -90.00004959106445,
        -5
      ],
      "scale": [
        1.01,
        1.01,
        1.06
      ],
      "mesh": 1
    },
    {
      "children": [
        2
      ]
    },
    {
      "rotation": [
        0,
        0.3826834323650898,
        0,
        0.9238795325112867
      ],
      "scale": [
        0.390625,
        -0.390625,
        0.390625
      ],
      "children": [
        1,
        3
      ]
    },
    {
      "children": [
        4
      ]
    },
    {
      "translation": [
        -10.49610463523183,
        14.84372392296791,
        10.496104750477121
      ],
      "children": [
        5
      ]
    },
    {
      "children": [
        6
      ]
    },
    {
      "children": [
        7
      ]
    }
  ],
  "bufferViews": [
    {
      "buffer": 0,
      "byteOffset": 0,
      "byteLength": 207360,
      "target": 34962,
      "byteStride": 12
    },
    {
      "buffer": 0,
      "byteOffset": 207360,
      "byteLength": 138240,
      "target": 34962,
      "byteStride": 8
    },
    {
      "buffer": 0,
      "byteOffset": 345600,
      "byteLength": 207360,
      "target": 34962,
      "byteStride": 12
    },
    {
      "buffer": 0,
      "byteOffset": 552960,
      "byteLength": 207360,
      "target": 34962,
      "byteStride": 12
    },
    {
      "buffer": 0,
      "byteOffset": 760320,
      "byteLength": 138240,
      "target": 34962,
      "byteStride": 8
    },
    {
      "buffer": 0,
      "byteOffset": 898560,
      "byteLength": 207360,
      "target": 34962,
      "byteStride": 12
    }
  ],
  "buffers": [
    {
      "byteLength": 1105920,
      "uri": "data:application/octet-stream;base64,"
    }
  ],
  "accessors": [
    {
      "bufferView": 0,
      "componentType": 5126,
      "count": 17280,
      "max": [
        175.63638305664062,
        218.50198364257812,
        11
      ],
      "min": [
        83.11019134521484,
        37.497982025146484,
        -1
      ],
      "type": "VEC3"
    },
    {
      "bufferView": 1,
      "componentType": 5126,
      "count": 17280,
      "max": [
        210.3832244873047,
        218.00003051757812
      ],
      "min": [
        45.63041305541992,
        -10
      ],
      "type": "VEC2"
    },
    {
      "bufferView": 2,
      "componentType": 5126,
      "count": 17280,
      "max": [
        0.9998977780342102,
        0.9961420893669128,
        1
      ],
      "min": [
        -0.9998977780342102,
        -0.9961420893669128,
        -1
      ],
      "type": "VEC3"
    },
    {
      "bufferView": 3,
      "componentType": 5126,
      "count": 17280,
      "max": [
        218.50279235839844,
        198.6721954345703,
        11
      ],
      "min": [
        37.497169494628906,
        121.39745330810547,
        -1
      ],
      "type": "VEC3"
    },
    {
      "bufferView": 4,
      "componentType": 5126,
      "count": 17280,
      "max": [
        217.99998474121094,
        198.172119140625
      ],
      "min": [
        37.99995040893555,
        -10
      ],
      "type": "VEC2"
    },
    {
      "bufferView": 5,
      "componentType": 5126,
      "count": 17280,
      "max": [
        0.9944651126861572,
        0.9999262094497681,
        1
      ],
      "min": [
        -0.9945046901702881,
        -0.9999303817749023,
        -1
      ],
      "type": "VEC3"
    }
  ],
  "materials": [
    {
      "pbrMetallicRoughness": {
        "baseColorFactor": [
          0,
          0,
          0,
          1
        ],
        "metallicFactor": 0.9,
        "roughnessFactor": 0.2
      },
      "doubleSided": true,
      "extras": {
        "originalProperties": {
          "color": 0,
          "roughness": 0.2,
          "metalness": 0.9,
          "clearcoat": 1,
          "clearcoatRoughness": 0.05,
          "transmission": 0,
          "ior": 2.3333333333333335,
          "opacity": 1,
          "sheen": 0,
          "sheenRoughness": 1
        },
        "isHole": false
      },
      "extensions": {
        "KHR_materials_ior": {
          "ior": 2.3333333333333335
        },
        "KHR_materials_clearcoat": {
          "clearcoatFactor": 1,
          "clearcoatRoughnessFactor": 0.05
        }
      }
    },
    {
      "pbrMetallicRoughness": {
        "baseColorFactor": [
          0,
          0,
          0,
          1
        ],
        "metallicFactor": 0.9,
        "roughnessFactor": 0.2
      },
      "alphaMode": "BLEND",
      "doubleSided": true,
      "extras": {
        "originalProperties": {
          "color": 0,
          "roughness": 0.2,
          "metalness": 0.9,
          "clearcoat": 1,
          "clearcoatRoughness": 0.05,
          "transmission": 0,
          "ior": 2.3333333333333335,
          "opacity": 1,
          "sheen": 0,
          "sheenRoughness": 1
        },
        "isHole": true
      },
      "extensions": {
        "KHR_materials_ior": {
          "ior": 2.3333333333333335
        },
        "KHR_materials_clearcoat": {
          "clearcoatFactor": 1,
          "clearcoatRoughnessFactor": 0.05
        }
      }
    }
  ],
  "meshes": [
    {
      "primitives": [
        {
          "mode": 4,
          "attributes": {
            "POSITION": 0,
            "TEXCOORD_0": 1,
            "NORMAL": 2
          },
          "material": 0
        }
      ]
    },
    {
      "primitives": [
        {
          "mode": 4,
          "attributes": {
            "POSITION": 3,
            "TEXCOORD_0": 4,
            "NORMAL": 5
          },
          "material": 1
        }
      ]
    }
  ],
  "extensionsUsed": [
    "KHR_materials_ior",
    "KHR_materials_clearcoat"
  ]
}