<?xml version="1.0" encoding="utf-8"?>
<svg xmlns="http://www.w3.org/2000/svg" viewBox="0 0 256 256" width="256px" height="256px" xmlns:bx="https://boxy-svg.com"><defs/><g transform="matrix(0.818182, 0, 0, 0.818186, -25.1007, -39.0331)"><path d="M 244.734 204.153 C 244.734 264.932 219.561 314.15 188.799 314.15 C 157.849 314.15 132.869 264.932 132.869 204.153 C 132.869 143.369 157.849 94.151 188.799 94.151 C 219.561 94.151 244.734 143.369 244.734 204.153 Z M 188.799 99.744 C 170.155 99.744 155.242 146.54 155.242 204.153 C 155.242 261.948 170.155 308.561 188.799 308.561 C 207.444 308.561 222.361 261.948 222.361 204.153 C 222.361 146.54 207.444 99.744 188.799 99.744 Z" style="fill: rgb(255, 255, 255);"/><path d="M 187.121 289.916 C 126.343 289.916 77.123 269.218 77.123 243.305 C 77.123 217.573 126.343 196.692 187.121 196.692 C 247.716 196.692 297.123 217.573 297.123 243.305 C 297.123 269.218 247.716 289.916 187.121 289.916 Z M 291.528 243.305 C 291.528 228.016 244.734 215.337 187.121 215.337 C 129.325 215.337 82.712 228.016 82.712 243.305 C 82.712 258.966 129.325 271.271 187.121 271.271 C 244.734 271.271 291.528 258.966 291.528 243.305 Z" style="fill: rgb(255, 255, 255);"/></g></svg>