<svg data-name="Layer 1" xmlns="http://www.w3.org/2000/svg" viewBox="0 0 386 497"><path d="M2 497v-52L0 335v-30c2-2 4-2 6-2h58c1-3-1-6-1-9V191c-1-2-3-1-4-1l-17-1a65 65 0 0 1-16-1c-13-4-21-12-24-25l-1-19V55l1-25 1-4C6 12 16 4 30 1a80 80 0 0 1 14-1l116 1h4c2 5 1 10 1 15l-1 14a43 43 0 0 1-4 1l-94-1H45a47 47 0 0 0-8 0c-4 1-6 3-6 8a63 63 0 0 0-1 7v102a37 37 0 0 0 0 4c0 6 2 8 8 8h6l112 1 7 1c2 4 1 9 1 14a116 116 0 0 1-1 14c-2 2-4 1-6 1h-38a21 21 0 0 0-10 2 11 11 0 0 0-7 10v4l1 82a45 45 0 0 0 2 14h43a50 50 0 0 1 14 1c11 4 20 11 25 21a55 55 0 0 1 6 23v27a54 54 0 0 1-4 17c-5 14-15 22-30 24a92 92 0 0 1-13 1l-96 1h-6l-1-11v-23l5-1h23l73-1a78 78 0 0 0 10 0c5-1 8-4 9-10a71 71 0 0 0 0-23 12 12 0 0 0-10-10 31 31 0 0 0-7-1l-111 1h-4l-1 7 1 62 1 82c0 3 1 5-1 7Zm384-39-1 4c-1 13-8 22-21 26a50 50 0 0 1-17 3H218l-1-10v-19a24 24 0 0 1 4-1h129c4-1 5-3 6-6a31 31 0 0 0 0-6V344a30 30 0 0 0 0-6c-1-4-3-6-7-6a60 60 0 0 0-8 0H224l-6-1-1-9v-19c2-2 4-1 6-1h48c2 0 4 0 6-2a51 51 0 0 0 1-11l-1-86a27 27 0 0 0-1-6 4 4 0 0 0-5-4h-38a67 67 0 0 1-17-1c-11-3-19-10-23-21a54 54 0 0 1-4-16v-16L188 9l1-7h30v7l1 93v42a49 49 0 0 0 1 9c0 3 2 5 6 5a43 43 0 0 0 5 0h102a54 54 0 0 0 7 0c4-1 6-3 7-7a30 30 0 0 0 0-4V2h30a29 29 0 0 1 1 3 31 31 0 0 1 0 3v134a94 94 0 0 1-2 22c-4 18-15 27-34 29h-20l-6 1a8 8 0 0 0 0 2l1 78v7l-1 15v4c1 2 3 2 5 2h20c6 0 12 0 18 2a52 52 0 0 1 10 4c9 5 14 12 15 22l1 6Z"/></svg>