<svg xmlns="http://www.w3.org/2000/svg" viewBox="0 0 315 317"><path d="M36 91c-9 0-10-10-10-10V33c0-6 3-10 10-10h75V0H36C12 0 1 11 1 33v48c0 23 10 34 35 34h53v60a57 57 0 0 0 1 11H33c-21 0-33 14-33 38v7c0 24 6 37 29 37h59v49h24V210h100l26 1h43c8-1 9 8 9 8v64c0 6-3 10-9 10h-79v24h79c23 0 33-12 33-33v-65c0-21-10-32-33-32h-37c-9 0-21 1-21-7v-65l57 1c24 0 35-9 35-35V0h-24v81c0 9-2 10-10 10h-50c-6 0-10-3-10-10V0h-24v80a64 64 0 0 0 1 11 103 103 0 0 0-12-1H85M33 243c-9 0-12-3-12-12v-8c0-8 4-12 12-12h55v32Zm81-129h72c7 1 10 11 10 11v62h-74c-6 0-10-11-10-11v-61"/></svg>
